<svg width="74" height="75" viewBox="0 0 74 75" fill="none" xmlns="http://www.w3.org/2000/svg">
<path d="M34.336 15.7135H35.5581C35.5581 15.0385 35.0109 14.4913 34.336 14.4913V15.7135ZM34.336 15.8366L34.5429 17.041C35.1294 16.9403 35.5581 16.4317 35.5581 15.8366H34.336ZM42.7899 15.8366H41.5678C41.5678 16.4317 41.9965 16.9403 42.583 17.041L42.7899 15.8366ZM42.7899 15.7135V14.4913C42.115 14.4913 41.5678 15.0385 41.5678 15.7135H42.7899ZM34.1491 10.8076C34.1491 10.8962 34.0772 10.9681 33.9886 10.9681V8.52386C32.7273 8.52386 31.7049 9.54632 31.7049 10.8076H34.1491ZM34.1491 14.6518V10.8076H31.7049V14.6518H34.1491ZM33.9886 14.4913C34.0772 14.4913 34.1491 14.5632 34.1491 14.6518H31.7049C31.7049 15.9131 32.7273 16.9356 33.9886 16.9356V14.4913ZM34.336 14.4913H33.9886V16.9356H34.336V14.4913ZM33.1139 15.7135V15.8366H35.5581V15.7135H33.1139ZM34.1291 14.6321C29.5517 15.4184 26.0689 19.4045 26.0689 24.2066H28.5131C28.5131 20.6148 31.1187 17.6292 34.5429 17.041L34.1291 14.6321ZM26.0689 24.2066L26.0689 63.2524H28.5131L28.5131 24.2066H26.0689ZM26.0689 63.2524C26.0689 65.6863 28.042 67.6594 30.4759 67.6594V65.2151C29.3919 65.2151 28.5131 64.3364 28.5131 63.2524H26.0689ZM30.4759 67.6594H46.65V65.2151H30.4759V67.6594ZM46.65 67.6594C49.0839 67.6594 51.057 65.6863 51.057 63.2524H48.6127C48.6127 64.3364 47.734 65.2151 46.65 65.2151V67.6594ZM51.057 63.2524V24.2066H48.6127V63.2524H51.057ZM51.057 24.2066C51.057 19.4045 47.5741 15.4184 42.9968 14.6321L42.583 17.041C46.0072 17.6292 48.6127 20.6148 48.6127 24.2066H51.057ZM44.012 15.8366V15.7135H41.5678V15.8366H44.012ZM43.1373 14.4913H42.7899V16.9356H43.1373V14.4913ZM42.9768 14.6518C42.9768 14.5632 43.0486 14.4913 43.1373 14.4913V16.9356C44.3985 16.9356 45.421 15.9131 45.421 14.6518H42.9768ZM42.9768 10.8076V14.6518H45.421V10.8076L42.9768 10.8076ZM43.1373 10.9681C43.0486 10.9681 42.9768 10.8962 42.9768 10.8076L45.421 10.8076C45.421 9.54632 44.3985 8.52386 43.1373 8.52386V10.9681ZM33.9886 10.9681H43.1373V8.52386H33.9886V10.9681Z" fill="black"/>
</svg>
