<svg width="74" height="75" viewBox="0 0 74 75" fill="none" xmlns="http://www.w3.org/2000/svg">
<rect x="63.5898" y="44.3923" width="10.3425" height="18.6925" rx="5.17123" transform="rotate(107.89 63.5898 44.3923)" stroke="black" stroke-width="2.31065"/>
<rect x="40.3809" y="54.3538" width="8.97341" height="31.4069" rx="4.4867" transform="rotate(90 40.3809 54.3538)" stroke="black" stroke-width="2.31065"/>
<path d="M8.97432 42.0785L10.1294 42.1043L10.1296 42.0914V42.0785H8.97432ZM8.97266 42.2275L10.128 42.2275L8.97266 42.2275ZM15.2694 48.7709L15.3133 47.6164L15.3129 47.6164L15.2694 48.7709ZM15.4827 48.7755L15.4897 47.6202H15.4895L15.4827 48.7755ZM15.5451 48.7756V47.6203L15.541 47.6203L15.5451 48.7756ZM34.4377 35.6793V36.8346V35.6793ZM22.0706 35.6793H20.9153V36.8346L22.0706 36.8346V35.6793ZM10.1296 16.0349C10.1296 13.0565 12.5441 10.642 15.5225 10.642V8.33137C11.268 8.33137 7.81899 11.7803 7.81899 16.0349H10.1296ZM10.1296 42.0785V16.0349H7.81899V42.0785H10.1296ZM10.128 42.2275C10.128 42.1863 10.1284 42.1452 10.1294 42.1043L7.81928 42.0527C7.81798 42.1108 7.81733 42.1691 7.81733 42.2275L10.128 42.2275ZM15.3129 47.6164C12.4313 47.5076 10.128 45.1362 10.128 42.2275L7.81733 42.2275C7.81733 46.3832 11.1076 49.7699 15.2258 49.9254L15.3129 47.6164ZM15.4895 47.6202C15.4305 47.6199 15.3718 47.6186 15.3133 47.6164L15.2255 49.9254C15.3086 49.9285 15.3921 49.9304 15.4758 49.9309L15.4895 47.6202ZM15.5225 47.6203C15.5114 47.6203 15.5005 47.6203 15.4897 47.6202L15.4757 49.9309C15.4914 49.9309 15.507 49.931 15.5225 49.931V47.6203ZM15.541 47.6203C15.535 47.6203 15.5288 47.6203 15.5225 47.6203V49.931C15.5312 49.931 15.5401 49.931 15.5492 49.9309L15.541 47.6203ZM34.4377 47.6203H15.5451V49.931H34.4377V47.6203ZM39.8306 42.2275C39.8306 45.2058 37.4161 47.6203 34.4377 47.6203V49.931C38.6922 49.931 42.1412 46.482 42.1412 42.2275H39.8306ZM34.4377 36.8346C37.4161 36.8346 39.8306 39.2491 39.8306 42.2275H42.1412C42.1412 37.9729 38.6922 34.524 34.4377 34.524V36.8346ZM22.0706 36.8346L34.4377 36.8346V34.524L22.0706 34.524V36.8346ZM20.9153 16.0349V35.6793H23.226V16.0349H20.9153ZM15.5225 10.642C18.5009 10.642 20.9153 13.0565 20.9153 16.0349H23.226C23.226 11.7803 19.777 8.33137 15.5225 8.33137V10.642Z" fill="black"/>
</svg>
