<svg width="75" height="75" viewBox="0 0 75 75" fill="none" xmlns="http://www.w3.org/2000/svg">
<mask id="path-1-inside-1_1691_20964" fill="white">
<path fill-rule="evenodd" clip-rule="evenodd" d="M25.6913 9.92017C21.1167 9.92017 17.4082 13.6287 17.4082 18.2033V51.69C18.0562 51.4609 18.7535 51.3362 19.48 51.3362H52.6126C53.3383 51.3362 54.0349 51.4606 54.6823 51.6893V18.2033C54.6823 13.6287 50.9739 9.92017 46.3992 9.92017H25.6913Z"/>
</mask>
<path d="M17.4082 51.69H15.0976V54.9581L18.1786 53.8685L17.4082 51.69ZM54.6823 51.6893L53.9127 53.868L56.993 54.9562V51.6893H54.6823ZM19.7189 18.2033C19.7189 14.9048 22.3928 12.2308 25.6913 12.2308V7.60951C19.8406 7.60951 15.0976 12.3525 15.0976 18.2033H19.7189ZM19.7189 51.69V18.2033H15.0976V51.69H19.7189ZM18.1786 53.8685C18.5826 53.7256 19.0196 53.6468 19.48 53.6468V49.0255C18.4875 49.0255 17.5298 49.1962 16.6378 49.5116L18.1786 53.8685ZM19.48 53.6468H52.6126V49.0255H19.48V53.6468ZM52.6126 53.6468C53.0725 53.6468 53.5091 53.7254 53.9127 53.868L55.452 49.5106C54.5608 49.1958 53.6041 49.0255 52.6126 49.0255V53.6468ZM52.3717 18.2033V51.6893H56.993V18.2033H52.3717ZM46.3992 12.2308C49.6977 12.2308 52.3717 14.9048 52.3717 18.2033H56.993C56.993 12.3525 52.25 7.60951 46.3992 7.60951V12.2308ZM25.6913 12.2308H46.3992V7.60951H25.6913V12.2308Z" fill="black" mask="url(#path-1-inside-1_1691_20964)"/>
<rect x="14.4229" y="48.3491" width="43.2466" height="14.2556" rx="7.12782" stroke="black" stroke-width="2.31065"/>
<rect x="10.2823" y="40.0665" width="14.2556" height="10.1141" rx="5.05703" stroke="black" stroke-width="2.31065"/>
<rect x="47.5557" y="40.0665" width="14.2556" height="10.1141" rx="5.05703" stroke="black" stroke-width="2.31065"/>
</svg>
