<svg width="74" height="75" viewBox="0 0 74 75" fill="none" xmlns="http://www.w3.org/2000/svg">
<path d="M29.4573 31.9843L29.1716 30.8648L28.1859 31.1164L28.3107 32.1261L29.4573 31.9843ZM23.0966 31.9837L24.2431 32.1257L24.3682 31.116L23.3824 30.8643L23.0966 31.9837ZM37.942 19.5624C37.942 25.0041 34.2144 29.5781 29.1716 30.8648L29.7429 33.1038C35.7842 31.5622 40.2526 26.0856 40.2526 19.5624H37.942ZM26.2781 7.89861C32.7199 7.89861 37.942 13.1207 37.942 19.5624H40.2526C40.2526 11.8445 33.996 5.58796 26.2781 5.58796V7.89861ZM14.6143 19.5624C14.6143 13.1207 19.8364 7.89861 26.2781 7.89861V5.58796C18.5602 5.58796 12.3037 11.8445 12.3037 19.5624H14.6143ZM23.3824 30.8643C18.3408 29.5768 14.6143 25.0033 14.6143 19.5624H12.3037C12.3037 26.0847 16.7708 31.5606 22.8107 33.1031L23.3824 30.8643ZM24.2274 32.3816C24.2274 32.2944 24.2328 32.2091 24.2431 32.1257L21.95 31.8417C21.928 32.019 21.9168 32.1993 21.9168 32.3816H24.2274ZM24.2274 59.6223V32.3816H21.9168V59.6223H24.2274ZM26.2769 61.6717C25.145 61.6717 24.2274 60.7542 24.2274 59.6223H21.9168C21.9168 62.0303 23.8689 63.9824 26.2769 63.9824V61.6717ZM28.3263 59.6223C28.3263 60.7542 27.4088 61.6717 26.2769 61.6717V63.9824C28.6849 63.9824 30.637 62.0303 30.637 59.6223H28.3263ZM28.3263 32.3816V59.6223H30.637V32.3816H28.3263ZM28.3107 32.1261C28.321 32.2093 28.3263 32.2946 28.3263 32.3816H30.637C30.637 32.1996 30.6258 32.0196 30.6039 31.8425L28.3107 32.1261Z" fill="black"/>
<path d="M51.918 32.3741H53.0733V31.2716L51.972 31.2201L51.918 32.3741ZM58.327 29.1125H57.1716V29.1238L57.1719 29.1352L58.327 29.1125ZM46.6631 13.1529C46.6631 10.251 49.0155 7.89861 51.9174 7.89861V5.58796C47.7394 5.58796 44.3525 8.97488 44.3525 13.1529H46.6631ZM46.6631 25.6515V13.1529H44.3525V25.6515H46.6631ZM51.972 31.2201C49.0171 31.0818 46.6631 28.6412 46.6631 25.6515H44.3525C44.3525 29.8812 47.6821 33.3325 51.864 33.5282L51.972 31.2201ZM53.0733 59.622V32.3741H50.7627V59.622H53.0733ZM55.1228 61.6714C53.9909 61.6714 53.0733 60.7539 53.0733 59.622H50.7627C50.7627 62.03 52.7148 63.9821 55.1228 63.9821V61.6714ZM57.1723 59.622C57.1723 60.7539 56.2547 61.6714 55.1228 61.6714V63.9821C57.5308 63.9821 59.4829 62.03 59.4829 59.622H57.1723ZM57.1723 29.1765V59.622H59.4829V29.1765H57.1723ZM57.1719 29.1352C57.1721 29.1489 57.1723 29.1626 57.1723 29.1765H59.4829C59.4829 29.1476 59.4826 29.1187 59.4821 29.0899L57.1719 29.1352ZM57.1716 13.1529V29.1125H59.4823V13.1529H57.1716ZM51.9174 7.89861C54.8192 7.89861 57.1716 10.251 57.1716 13.1529H59.4823C59.4823 8.97488 56.0954 5.58796 51.9174 5.58796V7.89861Z" fill="black"/>
</svg>
