<svg width="74" height="75" viewBox="0 0 74 75" fill="none" xmlns="http://www.w3.org/2000/svg">
<path d="M26.2192 53.1706V25.4153C26.2192 24.2675 26.2192 23.6936 26.428 23.2282C26.612 22.8179 26.9084 22.468 27.2829 22.219C27.7077 21.9365 28.2737 21.8422 29.4059 21.6535L50.381 18.1577C51.9088 17.903 52.6726 17.7757 53.268 17.9968C53.7904 18.1909 54.2283 18.5619 54.5056 19.0453C54.8216 19.5962 54.8216 20.3706 54.8216 21.9194V48.4035M26.2192 53.1706C26.2192 57.1198 23.0177 60.3212 19.0686 60.3212C15.1194 60.3212 11.918 57.1198 11.918 53.1706C11.918 49.2214 15.1194 46.02 19.0686 46.02C23.0177 46.02 26.2192 49.2214 26.2192 53.1706ZM54.8216 48.4035C54.8216 52.3527 51.6202 55.5541 47.671 55.5541C43.7218 55.5541 40.5204 52.3527 40.5204 48.4035C40.5204 44.4543 43.7218 41.2529 47.671 41.2529C51.6202 41.2529 54.8216 44.4543 54.8216 48.4035Z" stroke="black" stroke-width="2.45504" stroke-linecap="round" stroke-linejoin="round"/>
</svg>
