<svg width="75" height="75" viewBox="0 0 75 75" fill="none" xmlns="http://www.w3.org/2000/svg">
<path d="M55.8039 49.3437C60.293 51.5987 64.1417 55.2177 66.9509 59.743C67.5072 60.6391 67.7854 61.0872 67.8816 61.7077C68.077 62.9686 67.2148 64.5188 66.0404 65.0178C65.4625 65.2633 64.8124 65.2633 63.5123 65.2633M49.6373 36.071C54.2059 33.8006 57.3456 29.0861 57.3456 23.6383C57.3456 18.1905 54.2059 13.476 49.6373 11.2056M43.4706 23.6383C43.4706 31.3013 37.2586 37.5133 29.5956 37.5133C21.9327 37.5133 15.7206 31.3013 15.7206 23.6383C15.7206 15.9754 21.9327 9.76331 29.5956 9.76331C37.2586 9.76331 43.4706 15.9754 43.4706 23.6383ZM8.1949 58.9065C13.1107 51.5257 20.8678 46.7633 29.5956 46.7633C38.3234 46.7633 46.0805 51.5257 50.9963 58.9065C52.0732 60.5235 52.6117 61.3319 52.5497 62.3647C52.5014 63.1689 51.9743 64.1533 51.3318 64.6392C50.5065 65.2633 49.3716 65.2633 47.1017 65.2633H12.0895C9.81963 65.2633 8.68468 65.2633 7.85946 64.6392C7.21692 64.1533 6.6898 63.1689 6.64153 62.3647C6.57954 61.3319 7.11799 60.5235 8.1949 58.9065Z" stroke="black" stroke-width="2.31065" stroke-linecap="round" stroke-linejoin="round"/>
</svg>
