<svg width="75" height="73" viewBox="0 0 75 73" fill="none" xmlns="http://www.w3.org/2000/svg">
<rect x="69.9434" y="44.2141" width="10.9403" height="19.7731" rx="5.47017" transform="rotate(107.89 69.9434 44.2141)" stroke="black" stroke-width="2.44423"/>
<rect x="21.8613" y="7.50452" width="7.15085" height="16.7944" rx="3.57542" transform="rotate(-15 21.8613 7.50452)" stroke="black" stroke-width="2.44423"/>
<rect x="31.1543" y="58.5508" width="5.51298" height="5.50794" rx="2.75397" transform="rotate(-15 31.1543 58.5508)" stroke="black" stroke-width="2.44423"/>
<rect x="45.3926" y="52.3784" width="16.6113" height="33.2225" rx="6.9267" transform="rotate(90 45.3926 52.3784)" stroke="black" stroke-width="2.44423"/>
<path d="M4.47212 15.194L3.29164 15.5103L4.47212 15.194ZM9.37003 6.71052L9.05373 5.53005L9.37003 6.71052ZM11.6432 41.9567L10.4627 42.273L11.6432 41.9567ZM12.4274 43.7859L13.6048 43.4581L13.5589 43.2933L13.4695 43.1474L12.4274 43.7859ZM39.1115 34.9975V36.2196V34.9975ZM24.1205 34.9974L22.9401 35.3138L23.1828 36.2196H24.1205V34.9974ZM17.8535 11.6084L19.0339 11.2921L17.8535 11.6084ZM5.65259 14.8777C4.83716 11.8345 6.64314 8.70641 9.68634 7.89099L9.05373 5.53005C4.70661 6.69485 2.12684 11.1632 3.29164 15.5103L5.65259 14.8777ZM12.8236 41.6404L5.65259 14.8777L3.29164 15.5103L10.4627 42.273L12.8236 41.6404ZM13.4695 43.1474C13.1901 42.6913 12.97 42.1867 12.8236 41.6404L10.4627 42.273C10.6705 43.0487 10.9844 43.77 11.3853 44.4243L13.4695 43.1474ZM19.1011 47.6287C16.4834 47.6287 14.2747 45.8646 13.6048 43.4581L11.2501 44.1136C12.2066 47.5498 15.3576 50.073 19.1011 50.073V47.6287ZM39.1115 47.6287H19.1011V50.073H39.1115V47.6287ZM44.8161 41.9242C44.8161 45.0747 42.2621 47.6287 39.1115 47.6287V50.073C43.612 50.073 47.2604 46.4246 47.2604 41.9242H44.8161ZM39.1115 36.2196C42.2621 36.2196 44.8161 38.7736 44.8161 41.9242H47.2604C47.2604 37.4237 43.612 33.7753 39.1115 33.7753V36.2196ZM24.1205 36.2196L39.1115 36.2196V33.7753L24.1205 33.7753V36.2196ZM16.673 11.9247L22.9401 35.3138L25.301 34.6811L19.0339 11.2921L16.673 11.9247ZM9.68634 7.89099C12.7295 7.07557 15.8576 8.88154 16.673 11.9247L19.0339 11.2921C17.8691 6.94501 13.4008 4.36524 9.05373 5.53005L9.68634 7.89099Z" fill="black"/>
</svg>
