<svg width="74" height="75" viewBox="0 0 74 75" fill="none" xmlns="http://www.w3.org/2000/svg">
<path d="M44.8723 37.8258L57.6899 33.1648C57.8842 33.0942 58.083 33.0347 58.2885 33.0116C58.9707 32.9346 60.6269 32.9069 61.557 34.2505C62.0791 35.0045 62.1438 35.7839 62.0516 36.4219C61.9122 37.3869 61.0737 38.0248 60.1721 38.3961L43.7202 45.1704C42.2112 45.7917 40.4893 45.598 39.156 44.6569L21.615 32.275C21.2317 32.0044 20.8905 31.6788 20.6023 31.3086L19.0664 29.3354M19.0664 29.3354C19.0664 29.3354 18.6534 28.1436 18.6534 25.9081C18.6534 22.7465 20.372 21.5169 20.8906 21.2179C20.9866 21.1625 21.0892 21.1224 21.1935 21.0851L37.203 15.3674C37.5476 15.2443 37.9039 15.1608 38.2686 15.1303C39.2051 15.0522 41.1443 14.9377 42.4888 15.1822C43.5572 15.3765 44.9955 15.9329 45.6761 16.2113C45.9358 16.3175 46.1815 16.4522 46.4149 16.6079L63.5852 28.0547C63.8216 28.2123 64.0439 28.3894 64.2248 28.6085C64.9549 29.4925 66.8058 32.215 66.3241 36.634C66.0934 38.7502 64.5152 41.3048 63.5343 42.7162C63.0387 43.4294 62.3181 43.9433 61.5032 44.2435L41.0877 51.765C40.4404 52.0035 39.8526 52.3796 39.3649 52.8673L31.409 60.8232C29.1864 63.0458 25.4587 62.5466 23.8992 59.8175L12.7567 40.3181C12.7153 40.2456 12.6733 40.1766 12.6307 40.1047C12.1983 39.3765 9.80367 35.0001 12.6946 31.8669C14.7555 29.6333 19.0664 29.3354 19.0664 29.3354Z" stroke="black" stroke-width="2.45504" stroke-linecap="round" stroke-linejoin="round"/>
</svg>
