<svg width="74" height="75" viewBox="0 0 74 75" fill="none" xmlns="http://www.w3.org/2000/svg">
<path d="M56.0823 8.98669H57.2376C57.2376 8.34863 56.7204 7.83137 56.0823 7.83137V8.98669ZM17.9453 8.98669V7.83137C17.3072 7.83137 16.79 8.34863 16.79 8.98669H17.9453ZM53.9456 14.4029L53.2427 13.486C52.9575 13.7046 52.7903 14.0436 52.7903 14.4029C52.7903 14.7623 52.9575 15.1013 53.2427 15.3199L53.9456 14.4029ZM53.9459 56.8344L53.243 55.9175C52.9578 56.1362 52.7906 56.4751 52.7906 56.8344C52.7906 57.1938 52.9578 57.5327 53.243 57.7513L53.9459 56.8344ZM56.0823 62.2504V63.4057C56.7204 63.4057 57.2376 62.8885 57.2376 62.2504H56.0823ZM17.9453 62.2504H16.79C16.79 62.8885 17.3072 63.4057 17.9453 63.4057V62.2504ZM20.0817 56.8344L20.7846 57.7513C21.0698 57.5327 21.237 57.1938 21.237 56.8344C21.237 56.4751 21.0698 56.1362 20.7846 55.9175L20.0817 56.8344ZM20.082 14.4029L20.7849 15.3199C21.0701 15.1013 21.2373 14.7623 21.2373 14.4029C21.2373 14.0436 21.0701 13.7046 20.7849 13.486L20.082 14.4029ZM56.0823 7.83137H17.9453V10.142H56.0823V7.83137ZM57.2376 10.0763V8.98669H54.927V10.0763H57.2376ZM54.6484 15.3199C56.2204 14.1149 57.2376 12.2142 57.2376 10.0763H54.927C54.927 11.465 54.2689 12.6995 53.2427 13.486L54.6484 15.3199ZM57.2376 18.7296C57.2376 16.5917 56.2204 14.691 54.6484 13.486L53.2427 15.3199C54.2689 16.1064 54.927 17.3409 54.927 18.7296H57.2376ZM57.2376 52.508V18.7296H54.927V52.508H57.2376ZM54.6488 57.7513C56.2206 56.5463 57.2376 54.6457 57.2376 52.508H54.927C54.927 53.8966 54.269 55.131 53.243 55.9175L54.6488 57.7513ZM57.2376 61.1608C57.2376 59.0231 56.2206 57.1225 54.6488 55.9175L53.243 57.7513C54.269 58.5378 54.927 59.7722 54.927 61.1608H57.2376ZM57.2376 62.2504V61.1608H54.927V62.2504H57.2376ZM17.9453 63.4057H56.0823V61.0951H17.9453V63.4057ZM16.79 61.1608V62.2504H19.1006V61.1608H16.79ZM19.3788 55.9175C17.807 57.1225 16.79 59.0231 16.79 61.1608H19.1006C19.1006 59.7722 19.7586 58.5378 20.7846 57.7513L19.3788 55.9175ZM16.79 52.508C16.79 54.6457 17.807 56.5463 19.3788 57.7513L20.7846 55.9175C19.7586 55.131 19.1006 53.8966 19.1006 52.508H16.79ZM16.79 18.7296V52.508H19.1006V18.7296H16.79ZM19.3792 13.486C17.8072 14.691 16.79 16.5917 16.79 18.7296H19.1006C19.1006 17.3409 19.7587 16.1064 20.7849 15.3199L19.3792 13.486ZM16.79 10.0763C16.79 12.2142 17.8072 14.1149 19.3792 15.3199L20.7849 13.486C19.7587 12.6995 19.1006 11.465 19.1006 10.0763H16.79ZM16.79 8.98669V10.0763H19.1006V8.98669H16.79Z" fill="black"/>
<rect x="22.4316" y="31.8047" width="29.42" height="6.53777" rx="3.26888" stroke="black" stroke-width="2.31065"/>
<rect x="31.4062" y="44.8802" width="11.2168" height="2.24335" rx="1.12168" stroke="black" stroke-width="2.31065"/>
</svg>
