<svg width="74" height="75" viewBox="0 0 74 75" fill="none" xmlns="http://www.w3.org/2000/svg">
<rect x="61.6992" y="24.4843" width="7.11911" height="23.7304" rx="3.55955" transform="rotate(90 61.6992 24.4843)" stroke="black" stroke-width="2.44423"/>
<path d="M33.2227 37.5835H32.0005V38.8056H33.2227V37.5835ZM52.7711 57.499L52.4039 56.3333L51.5489 56.6026V57.499H52.7711ZM25.6493 57.5331H26.8714V56.6281L26.0058 56.3641L25.6493 57.5331ZM16.6113 43.0554L15.3892 43.0522V43.0554H16.6113ZM16.6114 43.0261L17.8335 43.0293V43.0261H16.6114ZM22.0833 9.02398C18.3863 9.02398 15.3893 12.021 15.3893 15.718H17.8335C17.8335 13.3709 19.7362 11.4682 22.0833 11.4682V9.02398ZM27.7507 9.02398H22.0833V11.4682H27.7507V9.02398ZM34.4448 15.718C34.4448 12.021 31.4477 9.02398 27.7507 9.02398V11.4682C30.0978 11.4682 32.0005 13.3709 32.0005 15.718H34.4448ZM34.4448 37.5835V15.718H32.0005V37.5835H34.4448ZM56.2271 36.3614H33.2227V38.8056H56.2271V36.3614ZM62.9211 43.0554C62.9211 39.3584 59.9241 36.3614 56.2271 36.3614V38.8056C58.5742 38.8056 60.4769 40.7083 60.4769 43.0554H62.9211ZM62.9211 45.3186V43.0554H60.4769V45.3186H62.9211ZM53.1382 58.6646C58.8075 56.8791 62.9211 51.5808 62.9211 45.3186H60.4769C60.4769 50.4834 57.0848 54.8591 52.4039 56.3333L53.1382 58.6646ZM51.5489 57.499V63.5508H53.9932V57.499H51.5489ZM51.5489 63.5508C51.5489 64.8906 50.4629 65.9767 49.1231 65.9767V68.4209C51.8128 68.4209 53.9932 66.2405 53.9932 63.5508H51.5489ZM49.1231 65.9767H29.2972V68.4209H49.1231V65.9767ZM29.2972 65.9767C27.9575 65.9767 26.8714 64.8906 26.8714 63.5508H24.4271C24.4271 66.2405 26.6075 68.4209 29.2972 68.4209V65.9767ZM26.8714 63.5508V57.5331H24.4271V63.5508H26.8714ZM15.3892 45.3186C15.3892 51.6251 19.5611 56.9539 25.2927 58.702L26.0058 56.3641C21.2737 54.9209 17.8334 50.5199 17.8334 45.3186H15.3892ZM15.3892 43.0554V45.3186H17.8334V43.0554H15.3892ZM15.3893 43.0229L15.3892 43.0522L17.8334 43.0586L17.8335 43.0293L15.3893 43.0229ZM15.3893 15.718V43.0261H17.8335V15.718H15.3893Z" fill="black"/>
</svg>
